<svg xmlns="http://www.w3.org/2000/svg" xmlns:xlink="http://www.w3.org/1999/xlink" width="1440" zoomAndPan="magnify" viewBox="0 0 1080 767.999994" height="1024" preserveAspectRatio="xMidYMid meet" version="1.0"><defs><clipPath id="705c83d80e"><path d="M 386.398438 230.398438 L 693.898438 230.398438 L 693.898438 537.898438 L 386.398438 537.898438 Z M 386.398438 230.398438 " clip-rule="nonzero"/></clipPath></defs><rect x="-108" width="1296" fill="#ffffff" y="-76.799999" height="921.599993" fill-opacity="1"/><rect x="-108" width="1296" fill="#ffffff" y="-76.799999" height="921.599993" fill-opacity="1"/><rect x="-108" width="1296" fill="#1a4d2e" y="-76.799999" height="921.599993" fill-opacity="1"/><g clip-path="url(#705c83d80e)"><path fill="#ffe4c4" d="M 688.917969 537.878906 L 391.40625 537.878906 C 388.714844 537.878906 386.53125 535.695312 386.53125 533 L 386.53125 505.207031 C 386.53125 458.96875 424.148438 421.351562 470.386719 421.351562 L 609.9375 421.351562 C 656.175781 421.351562 693.792969 458.96875 693.792969 505.207031 L 693.792969 533 C 693.792969 535.695312 691.613281 537.878906 688.917969 537.878906 Z M 540.164062 408.238281 C 491.132812 408.238281 451.242188 368.351562 451.242188 319.320312 C 451.242188 270.289062 491.132812 230.398438 540.164062 230.398438 C 589.191406 230.398438 629.082031 270.289062 629.082031 319.320312 C 629.082031 368.351562 589.191406 408.238281 540.164062 408.238281 Z M 540.164062 408.238281 " fill-opacity="1" fill-rule="nonzero"/></g></svg>